<?xml version="1.0" encoding="utf-8"?>
<!-- Generator: Adobe Illustrator 24.1.0, SVG Export Plug-In . SVG Version: 6.00 Build 0)  -->
<svg version="1.1" id="Layer_1" xmlns="http://www.w3.org/2000/svg" xmlns:xlink="http://www.w3.org/1999/xlink" x="0px" y="0px"
	 viewBox="0 0 30 30" style="enable-background:new 0 0 30 30;" xml:space="preserve">
<style type="text/css">
	.st0{fill:#FEFEFE;}
	.st1{fill:#019FB7;}
	.st2{fill:#07303A;}
</style>
<g>
	<path class="st0" d="M15,30.57c-5.21,0-10.43,0-15.64,0c-0.09,0-0.1-0.02-0.1-0.1c0-10.31,0-20.62,0-30.93c0-0.08,0.01-0.1,0.1-0.1
		c10.42,0,20.84,0,31.27,0c0.09,0,0.11,0.02,0.11,0.11c0,10.31,0,20.62,0,30.93c0,0.08-0.01,0.1-0.09,0.1
		C25.43,30.57,20.22,30.57,15,30.57z M0.38,14.86c0,8.12,6.56,14.71,14.66,14.76c8.14,0.05,14.81-6.51,14.85-14.68
		c0.04-8.21-6.58-14.8-14.69-14.84C7.01,0.07,0.37,6.7,0.38,14.86z"/>
	<path class="st1" d="M0.38,14.86C0.37,6.7,7.01,0.07,15.2,0.11c8.11,0.03,14.73,6.63,14.69,14.84c-0.04,8.17-6.7,14.73-14.85,14.68
		C6.93,29.57,0.37,22.98,0.38,14.86z M16.31,12.15c0-0.04,0-0.08,0-0.11c0-0.83,0-1.67,0-2.5c0-0.08-0.02-0.1-0.1-0.1
		c-0.33,0-0.66,0-0.99,0c-0.14,0-0.14,0-0.14,0.13c0,1.85,0,3.7,0,5.54c0,0.04,0,0.08-0.01,0.13c-0.01,0.1-0.09,0.17-0.18,0.17
		c-0.1,0-0.18-0.07-0.2-0.17c0-0.02,0-0.04,0-0.06c0-0.27,0-0.53,0-0.8c0.05-1.46-1.14-2.61-2.59-2.51
		c-1.38,0.09-2.42,1.36-2.23,2.73c0.24,1.75,2.19,2.67,3.69,1.73c0.07-0.05,0.12-0.04,0.18,0.01c0.28,0.2,0.58,0.34,0.93,0.36
		c0.47,0.03,0.86-0.17,1.21-0.47c0.07-0.06,0.11-0.07,0.19-0.01c0.9,0.67,2.13,0.64,3-0.08c0.85-0.71,1.11-1.93,0.62-2.93
		c-0.59-1.2-2.05-1.69-3.25-1.1C16.4,12.13,16.37,12.16,16.31,12.15z M23.98,16.39c0.01,0.25,0.03,0.49-0.06,0.73
		c-0.18,0.45-0.6,0.77-1.09,0.77c-0.37,0-0.74,0-1.11-0.01c-0.06,0-0.09,0.01-0.09,0.08c0,0.35,0,0.71,0,1.06
		c0,0.07,0.02,0.09,0.09,0.09c0.36,0,0.73,0,1.09,0c1.31-0.01,2.39-1.08,2.4-2.39c0.01-1.59,0-3.19,0-4.78c0-0.08-0.02-0.1-0.1-0.1
		c-0.34,0-0.68,0.01-1.02,0c-0.09,0-0.12,0.02-0.12,0.12c0,0.79,0,1.58,0,2.37c0,0.06,0,0.12-0.01,0.18
		c-0.14,0.67-0.79,1.09-1.46,0.93c-0.53-0.12-0.91-0.61-0.91-1.15c0-0.78,0-1.56,0-2.34c0-0.08-0.02-0.11-0.11-0.11
		c-0.34,0.01-0.68,0.01-1.02,0c-0.09,0-0.1,0.03-0.1,0.11c0,0.77,0,1.54,0,2.32c0,1.75,1.8,2.93,3.4,2.21
		C23.85,16.46,23.91,16.43,23.98,16.39z M8.79,13.65c0.19,0,0.38,0,0.57,0c0.09,0,0.1-0.02,0.08-0.11c-0.37-1.18-1.59-1.9-2.79-1.65
		c-1.28,0.26-2.1,1.46-1.91,2.75c0.16,1.09,1.09,1.96,2.18,2.04c1.17,0.08,2.21-0.63,2.53-1.71c0.02-0.08,0-0.1-0.08-0.1
		c-0.36,0-0.72,0-1.08,0c-0.09,0-0.14,0.03-0.19,0.1c-0.33,0.47-0.95,0.63-1.47,0.4C6.1,15.13,5.81,14.56,5.95,14
		c0.12-0.5,0.45-0.81,0.95-0.91C7.39,13,7.8,13.17,8.1,13.57c0.04,0.05,0.08,0.09,0.15,0.08C8.43,13.65,8.61,13.65,8.79,13.65z
		 M18.43,19.12c0.75,0,1.51,0,2.26,0c0.1,0,0.13-0.02,0.13-0.12c-0.01-0.34-0.01-0.67,0-1.01c0-0.08-0.02-0.11-0.11-0.11
		c-1.53,0-3.05,0-4.58,0c-0.09,0-0.1,0.03-0.1,0.11c0,0.34,0,0.68,0,1.02c0,0.09,0.02,0.11,0.11,0.11
		C16.91,19.12,17.67,19.12,18.43,19.12z M12.79,19.11c0.76,0,1.52,0,2.28,0c0.08,0,0.11-0.02,0.1-0.1c0-0.34,0-0.68,0-1.03
		c0-0.07-0.02-0.09-0.09-0.09c-1.53,0-3.06,0-4.59,0c-0.07,0-0.1,0.02-0.09,0.09c0,0.34,0,0.68,0,1.02c0,0.09,0.03,0.11,0.11,0.11
		C11.27,19.11,12.03,19.11,12.79,19.11z M7.15,17.89c-0.71,0-1.42,0-2.13,0c-0.09,0-0.22-0.04-0.27,0.02
		c-0.05,0.06-0.02,0.17-0.02,0.26c0,0.5,0.43,0.93,0.93,0.94c1.27,0,2.53,0,3.8,0c0.07,0,0.09-0.02,0.09-0.09c0-0.34,0-0.68,0-1.03
		c0-0.09-0.02-0.11-0.11-0.11C8.68,17.89,7.92,17.89,7.15,17.89z"/>
	<path class="st0" d="M16.31,12.15c0.05,0,0.09-0.03,0.12-0.05c1.2-0.6,2.66-0.1,3.25,1.1c0.49,1,0.24,2.22-0.62,2.93
		c-0.87,0.72-2.1,0.75-3,0.08c-0.08-0.06-0.12-0.06-0.19,0.01c-0.34,0.3-0.73,0.5-1.21,0.47c-0.35-0.02-0.65-0.16-0.93-0.36
		c-0.06-0.05-0.11-0.06-0.18-0.01c-1.5,0.94-3.45,0.02-3.69-1.73c-0.19-1.37,0.85-2.64,2.23-2.73c1.45-0.09,2.64,1.06,2.59,2.51
		c-0.01,0.27,0,0.53,0,0.8c0,0.02,0,0.04,0,0.06c0.02,0.1,0.1,0.17,0.2,0.17c0.09,0,0.17-0.07,0.18-0.17
		c0.01-0.04,0.01-0.08,0.01-0.13c0-1.85,0-3.7,0-5.54c0-0.13,0-0.13,0.14-0.13c0.33,0,0.66,0,0.99,0c0.08,0,0.11,0.02,0.1,0.1
		c0,0.83,0,1.67,0,2.5C16.31,12.08,16.31,12.11,16.31,12.15z M12.28,15.48c0.67,0,1.2-0.53,1.21-1.19c0-0.67-0.54-1.22-1.21-1.22
		c-0.66,0-1.2,0.54-1.2,1.2C11.07,14.94,11.61,15.48,12.28,15.48z M17.52,15.48c0.67,0,1.21-0.54,1.2-1.21c0-0.66-0.54-1.2-1.2-1.2
		c-0.66,0-1.21,0.54-1.21,1.21C16.31,14.94,16.85,15.48,17.52,15.48z"/>
	<path class="st0" d="M23.98,16.39c-0.07,0.03-0.14,0.07-0.2,0.1c-1.6,0.71-3.4-0.46-3.4-2.21c0-0.77,0-1.54,0-2.32
		c0-0.08,0.02-0.11,0.1-0.11c0.34,0.01,0.68,0.01,1.02,0c0.09,0,0.11,0.03,0.11,0.11c0,0.78,0,1.56,0,2.34
		c0,0.54,0.38,1.02,0.91,1.15c0.67,0.16,1.32-0.26,1.46-0.93c0.01-0.06,0.01-0.12,0.01-0.18c0-0.79,0-1.58,0-2.37
		c0-0.09,0.02-0.12,0.12-0.12c0.34,0.01,0.68,0,1.02,0c0.08,0,0.1,0.02,0.1,0.1c0,1.59,0,3.19,0,4.78c-0.01,1.31-1.09,2.38-2.4,2.39
		c-0.36,0-0.73,0-1.09,0c-0.07,0-0.09-0.02-0.09-0.09c0-0.35,0-0.71,0-1.06c0-0.07,0.03-0.09,0.09-0.08
		c0.37,0.01,0.74,0.01,1.11,0.01c0.48,0,0.91-0.32,1.09-0.77C24.02,16.89,23.99,16.65,23.98,16.39z"/>
	<path class="st0" d="M8.79,13.65c-0.18,0-0.36,0-0.54,0c-0.07,0-0.11-0.03-0.15-0.08c-0.3-0.4-0.71-0.57-1.2-0.48
		c-0.5,0.1-0.82,0.41-0.95,0.91c-0.14,0.56,0.15,1.13,0.67,1.37c0.52,0.24,1.14,0.07,1.47-0.4c0.05-0.07,0.1-0.1,0.19-0.1
		c0.36,0.01,0.72,0,1.08,0c0.08,0,0.1,0.02,0.08,0.1c-0.32,1.08-1.36,1.79-2.53,1.71c-1.09-0.08-2.02-0.94-2.18-2.04
		c-0.19-1.29,0.63-2.49,1.91-2.75c1.21-0.25,2.42,0.47,2.79,1.65c0.03,0.08,0.02,0.11-0.08,0.11C9.17,13.65,8.98,13.65,8.79,13.65z"
		/>
	<path class="st2" d="M18.43,19.12c-0.76,0-1.52,0-2.28,0c-0.09,0-0.11-0.02-0.11-0.11c0-0.34,0-0.68,0-1.02
		c0-0.08,0.02-0.11,0.1-0.11c1.53,0,3.05,0,4.58,0c0.08,0,0.11,0.02,0.11,0.11c0,0.34-0.01,0.67,0,1.01c0,0.11-0.03,0.12-0.13,0.12
		C19.94,19.12,19.18,19.12,18.43,19.12z"/>
	<path class="st0" d="M12.79,19.11c-0.76,0-1.52,0-2.27,0c-0.08,0-0.11-0.02-0.11-0.11c0.01-0.34,0-0.68,0-1.02
		c0-0.07,0.02-0.09,0.09-0.09c1.53,0,3.06,0,4.59,0c0.07,0,0.09,0.02,0.09,0.09c0,0.34,0,0.68,0,1.03c0,0.08-0.02,0.1-0.1,0.1
		C14.31,19.11,13.55,19.11,12.79,19.11z"/>
	<path class="st2" d="M7.15,17.89c0.76,0,1.53,0,2.29,0c0.09,0,0.11,0.02,0.11,0.11c-0.01,0.34,0,0.68,0,1.03
		c0,0.07-0.01,0.09-0.09,0.09c-1.27,0-2.53,0-3.8,0c-0.5,0-0.92-0.44-0.93-0.94c0-0.09-0.03-0.21,0.02-0.26
		c0.05-0.06,0.18-0.02,0.27-0.02C5.74,17.89,6.44,17.89,7.15,17.89z"/>
	<path class="st1" d="M12.28,15.48c-0.67,0-1.21-0.54-1.2-1.21c0-0.66,0.54-1.2,1.2-1.2c0.67,0,1.21,0.54,1.21,1.22
		C13.48,14.95,12.94,15.48,12.28,15.48z"/>
	<path class="st1" d="M17.52,15.48c-0.67,0-1.21-0.53-1.21-1.2c0-0.67,0.54-1.21,1.21-1.21c0.66,0,1.2,0.54,1.2,1.2
		C18.72,14.94,18.18,15.48,17.52,15.48z"/>
</g>
</svg>
