<svg fill="currentColor" style="display:inline-block;vertical-align:middle"
                                                height="16" width="16" viewBox="0 0 512 512">
                                                <g>
                                                    <path d="M256,48C141.1,48,48,141.1,48,256c0,114.9,93.1,208,208,208c114.9,0,208-93.1,208-208C464,141.1,370.9,48,256,48z M256,384
		V256H128.3L352,160L256,384z">
                                                        <path d="M256,48C141.1,48,48,141.1,48,256c0,114.9,93.1,208,208,208c114.9,0,208-93.1,208-208C464,141.1,370.9,48,256,48z M256,384
		V256H128.3L352,160L256,384z"></path>
                                                    </path>
                                                </g>
                                            </svg>