<svg id="Capa_1" enable-background="new 0 0 512 512" height="512" viewBox="0 0 512 512" width="512" xmlns="http://www.w3.org/2000/svg"><g><g><path d="m427.55 379.074-35.87-35.87h-271.36l-35.87 35.87-30.598 132.926h404.296z" fill="#ff193d"/><path d="m427.55 379.074-35.87-35.87h-135.68v168.796h202.148z" fill="#bd003b"/><g><g><path d="m207.624 288.006-.008 47.514c0 26.722 21.662 48.384 48.384 48.384 26.722 0 48.384-21.662 48.384-48.384l.008-47.514z" fill="#a24f3e"/><path d="m256.008 288.006s-.008 55.199-.008 95.898c26.722 0 48.384-21.662 48.384-48.384l.008-47.514z" fill="#873f2e"/><path d="m118.802 136.098c-22.094 0-40.005 17.911-40.005 40.005 0 22.094 17.911 40.005 40.005 40.005h49.523v-80.011h-49.523z" fill="#a24f3e"/><path d="m393.198 136.098c22.094 0 40.005 17.911 40.005 40.005 0 22.094-17.911 40.005-40.005 40.005h-49.523v-80.011h49.523z" fill="#873f2e"/></g><path d="m139.103 115.445v82.399c0 64.56 52.337 116.897 116.897 116.897 64.561 0 116.897-52.337 116.897-116.897v-82.399z" fill="#c76e59"/><path d="m256 73.269v241.473c64.561 0 116.897-52.337 116.897-116.897v-124.576z" fill="#a24f3e"/></g></g><g><path d="m337.024 115.992c38.324 0 69.392-31.068 69.392-69.392v-46.6h-176.224-21.697c-38.324 0-69.392 31.068-69.392 69.392v46.6z" fill="#6d3326"/><path d="m337.024 115.992c38.324 0 69.392-31.068 69.392-69.392v-46.6h-150.416l.004 115.992z" fill="#56281b"/><path d="m176.87 512h95.153l173.438-161.333v-78.736z" fill="#474f55"/><path d="m256.004 441.27-.004 70.73h16.023l173.438-161.333v-78.736z" fill="#32393f"/></g></g></svg>