<svg id="Layer_1" enable-background="new 0 0 512.025 512.025" height="512" viewBox="0 0 512.025 512.025" width="512" xmlns="http://www.w3.org/2000/svg"><path d="m426.922 458.91c-27.257 27.594-73.196 28.624-101.82 0-28.042-28.039-28.192-73.628 0-101.82 28.12-28.12 73.7-28.12 101.82 0s28.12 73.7 0 101.82z" fill="#ffec8f"/><path d="m426.922 458.91c-1.022 1.034-37.122-15.412-69.18-12.21-12.56 1.25-24.67 5.28-37.13 7.28-23.54-28.28-22.04-70.36 4.49-96.89 28.12-28.12 73.7-28.12 101.82 0s28.12 73.7 0 101.82z" fill="#fae26e"/><path d="m496.012 103.324v336s-72-32-168-32c-118.934 0-134.437 47.843-266.25 27.07-13.575-2.124-34.324-6.497-45.75-11.07v-336s34.93 13.97 98.27 15.8c84.417 2.472 109.824-29.045 202.05-31.64 66.115-1.749 139.399 13.703 179.68 31.84z" fill="#aaef68"/><path d="m496.012 128.444v310.88s-72-32-168-32c-121.376 0-141.973 52.082-279.37 24.74 56.437-32.183 80.987-91.982 88.493-178.404 1.552-17.868 26.654-20.799 32.128-3.72 8.563 26.719 12 65.997 19.029 80.883 7.47 15.8 13.98 34.35 29.89 41.58 7.94 3.61 16.97 3.67 25.69 3.65 26.41-.04 53.08-.26 78.82-6.15 115.504-26.475 84.139-127.659 120.99-194.79 10.533-19.217 30.908-41.579 52.33-46.669z" fill="#99d856"/><path d="m316.333 71.484c-36.64 31.099-67.664 29.919-97.86 40.33-41.169 14.211-42.418 37.757-48.61 49.56-10.691 20.392-33.091 20.429-41.95-3.26-6.783-18.204-2.508-36.341-13.63-54.99 84.416 2.471 109.823-29.045 202.05-31.64z" fill="#99d856"/><path d="m59.985 173.598c-.044 7.702 2.887 15.056 4.988 22.465 11.469 40.441-2.165 85.696.605 96.625.991 3.91 3.862 7.621 7.827 8.362 2.886.539 5.841-.549 8.373-2.036 14.459-8.487 17.768-27.576 19.585-44.243 3.788-34.75 7.062-53.632 1.83-71.343-5.687-19.249-42.998-46.237-43.208-9.83z" fill="#fff"/><path d="m448.012 72c0 47.31-55.022 72.898-91.27 43.5-40.956-33.251-17.067-99.5 35.27-99.5 30.818 0 56 24.966 56 56z" fill="#ffec8f"/><path d="m216.012 440c0 52.848-67.307 76.427-100.12 34.49-28.37-36.263-2.892-90.49 44.12-90.49 30.934 0 56 25.094 56 56z" fill="#ffec8f"/><path d="m448.012 72c0 47.31-55.022 72.898-91.27 43.5 12.64-20.014 33.511-13.205 50.01-23.32 22.728-13.934 14.793-42.067 31.86-51.25 5.94 8.89 9.4 19.58 9.4 31.07z" fill="#fae26e"/><path d="m216.012 440c0 52.848-67.307 76.427-100.12 34.49 7.798-4.059 16.683-1.397 24.91-2.98 33.012-6.334 54.359-34.458 56.38-63.68.21-3.05.23-6.15.6-9.17 11.2 10.24 18.23 24.97 18.23 41.34z" fill="#fae26e"/><path d="m135.907 431.275c11.837-2.084 25.738-23.35 6.767-23.274-15.611.061-24.623 26.417-6.767 23.274z" fill="#fff"/><path d="m362.258 39.222c-6.825 6.653-10.486 16.394-7.847 18.595 4.102 3.421 12.404-10.031 19.551-14.751 3.215-2.123 16.713-9.871 7.428-14.008-5.509-2.455-15.505 6.628-19.132 10.164z" fill="#fff"/><g fill="#4b1800"><path d="m496.012 88c-8.837 0-16 7.164-16 16v312.688c-42.906-14.568-106.918-26.781-168.626-24.369-8.829.346-15.707 7.784-15.361 16.613.345 8.829 7.791 15.701 16.613 15.362 68.594-2.687 139.778 13.838 176.876 30.326 10.567 4.697 22.498-3.053 22.498-14.621v-335.999c0-8.836-7.163-16-16-16z"/><path d="m51.525 417.001c-8.128-1.617-14.67-3.271-19.513-4.642v-302.907c19.706 4.834 52.249 10.548 96 10.548 53.021 0 85.067-16.127 131.151-25.387 8.664-1.741 14.275-10.175 12.535-18.838-1.741-8.663-10.179-14.274-18.838-12.535-47.774 9.599-77.001 24.76-124.848 24.76-67.474 0-105.723-14.725-106.057-14.855-10.493-4.199-21.943 3.538-21.943 14.855v336c0 6.542 3.983 12.426 10.058 14.855 10.737 4.305 34.373 9.841 38.351 9.841 7.477 0 14.16-5.269 15.675-12.881 1.724-8.666-3.905-17.089-12.571-18.814z"/><path d="m400.9 458.187c-21.543 10.692-47.457 6.436-64.484-10.59-6.248-6.249-16.379-6.249-22.627 0-6.249 6.248-6.249 16.379 0 22.627 26.691 26.693 67.404 33.467 101.336 16.627 7.916-3.928 11.148-13.529 7.22-21.444s-13.529-11.148-21.445-7.22z"/><path d="m346.665 127.927c46.789 37.946 117.347 4.733 117.347-55.927 0-39.701-32.299-72-72-72-67.383 0-97.996 85.183-45.347 127.927zm45.347-95.927c22.056 0 40 17.944 40 40 0 33.992-39.428 51.969-65.185 31.078-29.175-23.686-12.195-71.078 25.185-71.078z"/><path d="m160.012 368c-60.204 0-93.376 69.498-56.721 116.35 42.14 53.861 128.721 23.764 128.721-44.35 0-39.701-32.298-72-72-72zm12.926 109.699c-33.94 11.702-64.41-23.159-48.74-55.313 6.831-14.017 20.22-22.386 35.814-22.386 22.056 0 40 17.944 40 40 0 20.914-13.985 33.187-27.074 37.699z"/><path d="m319.4 334.341c21.198-35.019 1.48-77.47-36.396-87.652l-45.676-12.28c-12.75-3.428-21.316-14.041-21.316-26.409 0-17.645 17.944-32 40-32 14.684 0 28.189 6.495 35.245 16.951 4.943 7.324 14.887 9.254 22.213 4.312 7.325-4.943 9.255-14.888 4.313-22.213-10.135-15.017-26.877-25.572-45.771-29.43v-17.62c0-8.836-7.163-16-16-16s-16 7.164-16 16v17.613c-32.022 6.487-56 31.987-56 62.387 0 26.619 18.508 50.187 45.008 57.311l45.676 12.28c17.724 4.765 27.259 23.775 17.329 40.178-13.219 21.836-52.412 27.205-80.699-1.083-6.248-6.249-16.379-6.249-22.627 0-6.249 6.248-6.249 16.379 0 22.627 14.731 14.731 32.242 24.008 51.313 27.318v17.369c0 8.836 7.163 16 16 16s16-7.164 16-16v-17.602c20.023-4.044 37.404-15.565 47.388-32.057z"/><path d="m128.057 303.997c8.233 0 16.523-2.112 24.006-6.448 7.646-4.43 10.253-14.22 5.822-21.866-4.43-7.646-14.223-10.251-21.865-5.823-6.253 3.624-14.2 2.576-19.321-2.547-6.252-6.251-6.255-16.373 0-22.627 5.06-5.06 12.938-6.146 19.159-2.64 7.695 4.339 17.454 1.616 21.794-6.083 4.339-7.698 1.615-17.456-6.083-21.794-18.679-10.528-42.323-7.283-57.497 7.89-30.299 30.297-8.502 81.938 33.985 81.938z"/><path d="m384.012 272h-16c-8.837 0-16 7.164-16 16s7.163 16 16 16h16c26.468 0 48-21.533 48-48s-21.532-48-48-48h-16c-8.837 0-16 7.164-16 16s7.163 16 16 16h16c8.822 0 16 7.178 16 16s-7.177 16-16 16z"/></g></svg>